M48
; DRILL file {KiCad 9.0.7} date 2026-04-12T11:00:49-0500
; FORMAT={-:-/ absolute / metric / decimal}
; #@! TF.CreationDate,2026-04-12T11:00:49-05:00
; #@! TF.GenerationSoftware,Kicad,Pcbnew,9.0.7
; #@! TF.FileFunction,NonPlated,1,2,NPTH
FMAT,2
METRIC
; #@! TA.AperFunction,NonPlated,NPTH,ComponentDrill
T1C3.000
; #@! TA.AperFunction,NonPlated,NPTH,ComponentDrill
T2C6.000
; #@! TA.AperFunction,NonPlated,NPTH,ComponentDrill
T3C6.350
; #@! TA.AperFunction,NonPlated,NPTH,ComponentDrill
T4C7.000
%
G90
G05
T1
X111.982Y-65.992
T2
X112.511Y-140.562
X125.232Y-140.562
X137.932Y-140.562
X150.632Y-140.562
X163.311Y-140.562
T3
X125.232Y-116.75
T4
X116.765Y-50.668
X116.765Y-87.667
X137.943Y-50.668
X137.943Y-87.667
X150.632Y-116.75
X159.057Y-50.668
X159.057Y-87.667
T1
G00X110.948Y-32.259
M15
G01X113.948Y-32.259
M16
G05
G00X110.948Y-154.735
M15
G01X113.948Y-154.735
M16
G05
G00X161.684Y-32.259
M15
G01X164.684Y-32.259
M16
G05
G00X161.684Y-154.735
M15
G01X164.684Y-154.735
M16
G05
M30
