G04 Layer: BoardOutlineLayer*
G04 EasyEDA v6.5.48, 2025-02-08 06:39:44*
G04 da37e12b6d714248abb1756c4e4e4594,e30bb724354f420a97504b8da3067676,10*
G04 Gerber Generator version 0.2*
G04 Scale: 100 percent, Rotated: No, Reflected: No *
G04 Dimensions in millimeters *
G04 leading zeros omitted , absolute positions ,4 integer and 5 decimal *
%FSLAX45Y45*%
%MOMM*%

%ADD10C,0.2540*%
%ADD11C,0.0254*%
D10*
X0Y19999960D02*
G01*
X9999979Y19999960D01*
X9999979Y0D01*
X0Y0D01*
X0Y19999960D01*
D11*
G75*
G01*
X1385448Y14693986D02*
G02*
X1375289Y14699065I0J12700D01*
X1375289Y14699064D02*
G01*
X1367765Y14709092D01*
G75*
G01*
X1367766Y14709093D02*
G02*
X1365225Y14716714I10159J7621D01*
X1365224Y14716714D02*
G01*
X1365224Y16727754D01*
G75*
G01*
X1365225Y16727754D02*
G02*
X1365605Y16730840I12700J0D01*
X1365605Y16730840D02*
G01*
X1368117Y16740868D01*
G75*
G01*
X1368117Y16740868D02*
G02*
X1375726Y16749576I12320J-3086D01*
X1375725Y16749576D02*
G01*
X1388265Y16754584D01*
G75*
G01*
X1388266Y16754585D02*
G02*
X1392977Y16755491I4711J-11794D01*
X1392976Y16755491D02*
G01*
X6508302Y16755491D01*
G75*
G01*
X6508303Y16755491D02*
G02*
X6514835Y16753682I0J-12700D01*
X6514835Y16753682D02*
G01*
X6527375Y16746161D01*
G75*
G01*
X6527375Y16746161D02*
G02*
X6533161Y16738362I-6532J-10891D01*
X6533160Y16738362D02*
G01*
X6535678Y16728334D01*
G75*
G01*
X6535678Y16728334D02*
G02*
X6536060Y16725242I-12318J-3091D01*
X6536060Y16725242D02*
G01*
X6536060Y14721735D01*
G75*
G01*
X6536060Y14721736D02*
G02*
X6535678Y14718645I-12700J0D01*
X6535678Y14718645D02*
G01*
X6533161Y14708612D01*
G75*
G01*
X6533161Y14708612D02*
G02*
X6526527Y14700346I-12318J3091D01*
X6526527Y14700346D02*
G01*
X6516504Y14695329D01*
G75*
G01*
X6516504Y14695330D02*
G02*
X6510820Y14693986I-5684J11356D01*
X6510820Y14693986D02*
G01*
X1385448Y14693986D01*
X1385448Y14693986D02*
G01*
X1385448Y14693986D01*

%LPD*%
M02*
